<mxfile host="Electron" modified="2023-12-04T20:13:06.903Z" agent="Mozilla/5.0 (X11; Linux x86_64) AppleWebKit/537.36 (KHTML, like Gecko) draw.io/22.0.3 Chrome/114.0.5735.289 Electron/25.8.4 Safari/537.36" etag="FIooQxEex42ziTEeuVrC" version="22.0.3" type="device">
  <diagram name="Page-1" id="j1Z6tx3sbPO6TzDzAWEM">
    <mxGraphModel dx="1434" dy="775" grid="1" gridSize="10" guides="1" tooltips="1" connect="1" arrows="1" fold="1" page="1" pageScale="1" pageWidth="850" pageHeight="1100" math="0" shadow="0">
      <root>
        <mxCell id="0" />
        <mxCell id="1" parent="0" />
        <mxCell id="Ry-jSmfH3_tRgMZu5JE8-1" value="Actor" style="shape=umlActor;verticalLabelPosition=bottom;verticalAlign=top;html=1;fillColor=#1ba1e2;fontColor=#ffffff;strokeColor=#006EAF;" parent="1" vertex="1">
          <mxGeometry x="80" y="110" width="30" height="60" as="geometry" />
        </mxCell>
        <mxCell id="Ry-jSmfH3_tRgMZu5JE8-2" value="" style="html=1;points=[];perimeter=orthogonalPerimeter;fillColor=#1ba1e2;fontColor=#ffffff;strokeColor=#006EAF;" parent="1" vertex="1">
          <mxGeometry x="92.5" y="200" width="5" height="470" as="geometry" />
        </mxCell>
        <mxCell id="Ry-jSmfH3_tRgMZu5JE8-3" value="" style="html=1;verticalAlign=bottom;labelBackgroundColor=none;endArrow=block;endFill=1;" parent="1" edge="1">
          <mxGeometry width="160" relative="1" as="geometry">
            <mxPoint x="97.5" y="220" as="sourcePoint" />
            <mxPoint x="257.5" y="220" as="targetPoint" />
          </mxGeometry>
        </mxCell>
        <mxCell id="Ry-jSmfH3_tRgMZu5JE8-4" value="1: addStack()" style="text;html=1;strokeColor=none;fillColor=none;align=left;verticalAlign=middle;whiteSpace=wrap;rounded=0;" parent="1" vertex="1">
          <mxGeometry x="100" y="190" width="160" height="30" as="geometry" />
        </mxCell>
        <mxCell id="Ry-jSmfH3_tRgMZu5JE8-5" value=":Controller" style="rounded=0;whiteSpace=wrap;html=1;fillColor=#1ba1e2;fontColor=#ffffff;strokeColor=#006EAF;" parent="1" vertex="1">
          <mxGeometry x="210" y="120" width="120" height="60" as="geometry" />
        </mxCell>
        <mxCell id="Ry-jSmfH3_tRgMZu5JE8-6" value="" style="endArrow=none;dashed=1;html=1;startArrow=none;" parent="1" source="Ry-jSmfH3_tRgMZu5JE8-8" edge="1">
          <mxGeometry width="50" height="50" relative="1" as="geometry">
            <mxPoint x="264.5" y="730" as="sourcePoint" />
            <mxPoint x="264.5" y="190" as="targetPoint" />
          </mxGeometry>
        </mxCell>
        <mxCell id="Ry-jSmfH3_tRgMZu5JE8-7" value="" style="endArrow=none;dashed=1;html=1;" parent="1" target="Ry-jSmfH3_tRgMZu5JE8-8" edge="1">
          <mxGeometry width="50" height="50" relative="1" as="geometry">
            <mxPoint x="263" y="670" as="sourcePoint" />
            <mxPoint x="264.5" y="190" as="targetPoint" />
          </mxGeometry>
        </mxCell>
        <mxCell id="Ry-jSmfH3_tRgMZu5JE8-8" value="" style="html=1;points=[];perimeter=orthogonalPerimeter;fillColor=#1ba1e2;fontColor=#ffffff;strokeColor=#006EAF;" parent="1" vertex="1">
          <mxGeometry x="260" y="200" width="5" height="460" as="geometry" />
        </mxCell>
        <mxCell id="Ry-jSmfH3_tRgMZu5JE8-9" value="" style="html=1;verticalAlign=bottom;labelBackgroundColor=none;endArrow=block;endFill=1;exitX=0.669;exitY=0.19;exitDx=0;exitDy=0;exitPerimeter=0;" parent="1" edge="1">
          <mxGeometry width="160" relative="1" as="geometry">
            <mxPoint x="265.00500000000005" y="331.5999999999999" as="sourcePoint" />
            <mxPoint x="530" y="330" as="targetPoint" />
          </mxGeometry>
        </mxCell>
        <mxCell id="Ry-jSmfH3_tRgMZu5JE8-10" value="1.2: drop(): NumeroComplesso" style="text;html=1;strokeColor=none;fillColor=none;align=left;verticalAlign=middle;whiteSpace=wrap;rounded=0;" parent="1" vertex="1">
          <mxGeometry x="265" y="310" width="195" height="30" as="geometry" />
        </mxCell>
        <mxCell id="Ry-jSmfH3_tRgMZu5JE8-11" value="" style="html=1;verticalAlign=bottom;labelBackgroundColor=none;endArrow=block;endFill=1;" parent="1" edge="1">
          <mxGeometry width="160" relative="1" as="geometry">
            <mxPoint x="265" y="250" as="sourcePoint" />
            <mxPoint x="540" y="250" as="targetPoint" />
          </mxGeometry>
        </mxCell>
        <mxCell id="Ry-jSmfH3_tRgMZu5JE8-12" value="1.1: isEmpty(): boolean" style="text;html=1;strokeColor=none;fillColor=none;align=left;verticalAlign=middle;whiteSpace=wrap;rounded=0;" parent="1" vertex="1">
          <mxGeometry x="265" y="220" width="200" height="30" as="geometry" />
        </mxCell>
        <mxCell id="Ry-jSmfH3_tRgMZu5JE8-13" value="stack:Stack" style="rounded=0;whiteSpace=wrap;html=1;fillColor=#1ba1e2;fontColor=#ffffff;strokeColor=#006EAF;" parent="1" vertex="1">
          <mxGeometry x="486.48" y="120" width="120" height="60" as="geometry" />
        </mxCell>
        <mxCell id="Ry-jSmfH3_tRgMZu5JE8-15" value="" style="endArrow=none;dashed=1;html=1;exitX=1.076;exitY=0.001;exitDx=0;exitDy=0;exitPerimeter=0;" parent="1" edge="1">
          <mxGeometry width="50" height="50" relative="1" as="geometry">
            <mxPoint x="549.3599999999999" y="236.14" as="sourcePoint" />
            <mxPoint x="548.98" y="206.1" as="targetPoint" />
          </mxGeometry>
        </mxCell>
        <mxCell id="Ry-jSmfH3_tRgMZu5JE8-16" value="" style="html=1;verticalAlign=bottom;labelBackgroundColor=none;endArrow=block;endFill=1;" parent="1" edge="1">
          <mxGeometry width="160" relative="1" as="geometry">
            <mxPoint x="530" y="340" as="sourcePoint" />
            <mxPoint x="265" y="339.76" as="targetPoint" />
          </mxGeometry>
        </mxCell>
        <mxCell id="Ry-jSmfH3_tRgMZu5JE8-17" value="1.5: add(:NumeroComplesso)" style="text;html=1;strokeColor=none;fillColor=none;align=left;verticalAlign=middle;whiteSpace=wrap;rounded=0;" parent="1" vertex="1">
          <mxGeometry x="265" y="470" width="205" height="30" as="geometry" />
        </mxCell>
        <mxCell id="Ry-jSmfH3_tRgMZu5JE8-18" value="alt" style="shape=umlFrame;whiteSpace=wrap;html=1;pointerEvents=0;" parent="1" vertex="1">
          <mxGeometry x="80" y="300" width="479" height="270" as="geometry" />
        </mxCell>
        <mxCell id="Ry-jSmfH3_tRgMZu5JE8-20" value="" style="html=1;verticalAlign=bottom;labelBackgroundColor=none;endArrow=block;endFill=1;" parent="1" edge="1">
          <mxGeometry width="160" relative="1" as="geometry">
            <mxPoint x="255" y="505" as="sourcePoint" />
            <mxPoint x="97.5" y="504.5" as="targetPoint" />
          </mxGeometry>
        </mxCell>
        <mxCell id="Ry-jSmfH3_tRgMZu5JE8-21" value="1.6: return" style="text;html=1;strokeColor=none;fillColor=none;align=left;verticalAlign=middle;whiteSpace=wrap;rounded=0;" parent="1" vertex="1">
          <mxGeometry x="120" y="480" width="130" height="30" as="geometry" />
        </mxCell>
        <mxCell id="Ry-jSmfH3_tRgMZu5JE8-25" value="[!isEmpty()]" style="text;html=1;align=center;verticalAlign=middle;resizable=0;points=[];autosize=1;strokeColor=none;fillColor=none;" parent="1" vertex="1">
          <mxGeometry x="150" y="300" width="80" height="30" as="geometry" />
        </mxCell>
        <mxCell id="Ry-jSmfH3_tRgMZu5JE8-27" value=":Calculatore" style="rounded=0;whiteSpace=wrap;html=1;fillColor=#1ba1e2;fontColor=#ffffff;strokeColor=#006EAF;" parent="1" vertex="1">
          <mxGeometry x="650" y="120" width="120" height="60" as="geometry" />
        </mxCell>
        <mxCell id="Ry-jSmfH3_tRgMZu5JE8-28" value="" style="endArrow=none;dashed=1;html=1;startArrow=none;rounded=0;" parent="1" source="Ry-jSmfH3_tRgMZu5JE8-30" edge="1">
          <mxGeometry width="50" height="50" relative="1" as="geometry">
            <mxPoint x="724.5" y="720" as="sourcePoint" />
            <mxPoint x="724.5" y="180" as="targetPoint" />
          </mxGeometry>
        </mxCell>
        <mxCell id="Ry-jSmfH3_tRgMZu5JE8-29" value="" style="endArrow=none;dashed=1;html=1;rounded=0;" parent="1" target="Ry-jSmfH3_tRgMZu5JE8-30" edge="1">
          <mxGeometry width="50" height="50" relative="1" as="geometry">
            <mxPoint x="720" y="660" as="sourcePoint" />
            <mxPoint x="724.5" y="180" as="targetPoint" />
          </mxGeometry>
        </mxCell>
        <mxCell id="Ry-jSmfH3_tRgMZu5JE8-30" value="" style="html=1;points=[];perimeter=orthogonalPerimeter;fillColor=#1ba1e2;fontColor=#ffffff;strokeColor=#006EAF;" parent="1" vertex="1">
          <mxGeometry x="720" y="440" width="5" height="30" as="geometry" />
        </mxCell>
        <mxCell id="Ry-jSmfH3_tRgMZu5JE8-31" value="1.4: add(:NumeroComplesso, :NumeroComplesso)" style="text;html=1;strokeColor=none;fillColor=none;align=left;verticalAlign=middle;whiteSpace=wrap;rounded=0;" parent="1" vertex="1">
          <mxGeometry x="265" y="426.1" width="285" height="30" as="geometry" />
        </mxCell>
        <mxCell id="Ry-jSmfH3_tRgMZu5JE8-32" value="" style="html=1;verticalAlign=bottom;labelBackgroundColor=none;endArrow=block;endFill=1;exitX=0.669;exitY=0.19;exitDx=0;exitDy=0;exitPerimeter=0;" parent="1" edge="1">
          <mxGeometry width="160" relative="1" as="geometry">
            <mxPoint x="265.00500000000005" y="450.69999999999993" as="sourcePoint" />
            <mxPoint x="710" y="449.34000000000003" as="targetPoint" />
          </mxGeometry>
        </mxCell>
        <mxCell id="Ry-jSmfH3_tRgMZu5JE8-33" value="" style="html=1;verticalAlign=bottom;labelBackgroundColor=none;endArrow=block;endFill=1;" parent="1" edge="1">
          <mxGeometry width="160" relative="1" as="geometry">
            <mxPoint x="710" y="459.34000000000003" as="sourcePoint" />
            <mxPoint x="265" y="458.86" as="targetPoint" />
          </mxGeometry>
        </mxCell>
        <mxCell id="Ry-jSmfH3_tRgMZu5JE8-34" value="" style="html=1;verticalAlign=bottom;labelBackgroundColor=none;endArrow=block;endFill=1;" parent="1" edge="1">
          <mxGeometry width="160" relative="1" as="geometry">
            <mxPoint x="540" y="260" as="sourcePoint" />
            <mxPoint x="265" y="259.83" as="targetPoint" />
          </mxGeometry>
        </mxCell>
        <mxCell id="Ry-jSmfH3_tRgMZu5JE8-36" value="" style="endArrow=none;dashed=1;html=1;entryX=0.852;entryY=0.909;entryDx=0;entryDy=0;entryPerimeter=0;" parent="1" target="Ry-jSmfH3_tRgMZu5JE8-52" edge="1">
          <mxGeometry width="50" height="50" relative="1" as="geometry">
            <mxPoint x="548.98" y="662.0999999999999" as="sourcePoint" />
            <mxPoint x="548.98" y="386.1" as="targetPoint" />
          </mxGeometry>
        </mxCell>
        <mxCell id="Ry-jSmfH3_tRgMZu5JE8-37" value="alt" style="shape=umlFrame;whiteSpace=wrap;html=1;pointerEvents=0;" parent="1" vertex="1">
          <mxGeometry x="90" y="370" width="470" height="190" as="geometry" />
        </mxCell>
        <mxCell id="Ry-jSmfH3_tRgMZu5JE8-39" value="" style="endArrow=none;dashed=1;html=1;dashPattern=1 3;strokeWidth=2;rounded=0;exitX=-0.035;exitY=-0.007;exitDx=0;exitDy=0;exitPerimeter=0;" parent="1" source="Ry-jSmfH3_tRgMZu5JE8-42" edge="1">
          <mxGeometry width="50" height="50" relative="1" as="geometry">
            <mxPoint x="85" y="520" as="sourcePoint" />
            <mxPoint x="555" y="520" as="targetPoint" />
          </mxGeometry>
        </mxCell>
        <mxCell id="Ry-jSmfH3_tRgMZu5JE8-42" value="[else]" style="text;html=1;align=center;verticalAlign=middle;resizable=0;points=[];autosize=1;strokeColor=none;fillColor=none;" parent="1" vertex="1">
          <mxGeometry x="90" y="520" width="50" height="30" as="geometry" />
        </mxCell>
        <mxCell id="Ry-jSmfH3_tRgMZu5JE8-43" value="" style="html=1;verticalAlign=bottom;labelBackgroundColor=none;endArrow=block;endFill=1;exitX=0.669;exitY=0.19;exitDx=0;exitDy=0;exitPerimeter=0;" parent="1" edge="1">
          <mxGeometry width="160" relative="1" as="geometry">
            <mxPoint x="265.00500000000005" y="401.5999999999999" as="sourcePoint" />
            <mxPoint x="530" y="400" as="targetPoint" />
          </mxGeometry>
        </mxCell>
        <mxCell id="Ry-jSmfH3_tRgMZu5JE8-44" value="1.3: drop(): NumeroComplesso" style="text;html=1;strokeColor=none;fillColor=none;align=left;verticalAlign=middle;whiteSpace=wrap;rounded=0;" parent="1" vertex="1">
          <mxGeometry x="265" y="380" width="195" height="30" as="geometry" />
        </mxCell>
        <mxCell id="Ry-jSmfH3_tRgMZu5JE8-45" value="" style="html=1;verticalAlign=bottom;labelBackgroundColor=none;endArrow=block;endFill=1;" parent="1" edge="1">
          <mxGeometry width="160" relative="1" as="geometry">
            <mxPoint x="530" y="410" as="sourcePoint" />
            <mxPoint x="265" y="409.76" as="targetPoint" />
          </mxGeometry>
        </mxCell>
        <mxCell id="Ry-jSmfH3_tRgMZu5JE8-47" value="" style="html=1;verticalAlign=bottom;labelBackgroundColor=none;endArrow=block;endFill=1;exitX=0.669;exitY=0.19;exitDx=0;exitDy=0;exitPerimeter=0;" parent="1" edge="1">
          <mxGeometry width="160" relative="1" as="geometry">
            <mxPoint x="264.99500000000006" y="491.1499999999999" as="sourcePoint" />
            <mxPoint x="540" y="490" as="targetPoint" />
          </mxGeometry>
        </mxCell>
        <mxCell id="Ry-jSmfH3_tRgMZu5JE8-50" value="1.3: add(:NumeroComplesso)" style="text;html=1;strokeColor=none;fillColor=none;align=left;verticalAlign=middle;whiteSpace=wrap;rounded=0;" parent="1" vertex="1">
          <mxGeometry x="265" y="530" width="205" height="30" as="geometry" />
        </mxCell>
        <mxCell id="Ry-jSmfH3_tRgMZu5JE8-51" value="" style="html=1;verticalAlign=bottom;labelBackgroundColor=none;endArrow=block;endFill=1;exitX=0.669;exitY=0.19;exitDx=0;exitDy=0;exitPerimeter=0;" parent="1" edge="1">
          <mxGeometry width="160" relative="1" as="geometry">
            <mxPoint x="264.99500000000006" y="551.1499999999999" as="sourcePoint" />
            <mxPoint x="540" y="550" as="targetPoint" />
          </mxGeometry>
        </mxCell>
        <mxCell id="Ry-jSmfH3_tRgMZu5JE8-52" value="" style="html=1;points=[];perimeter=orthogonalPerimeter;fillColor=#1ba1e2;fontColor=#ffffff;strokeColor=#006EAF;" parent="1" vertex="1">
          <mxGeometry x="543.98" y="240" width="5" height="316.1" as="geometry" />
        </mxCell>
        <mxCell id="Ry-jSmfH3_tRgMZu5JE8-55" value="[!isEmpty()]" style="text;html=1;align=center;verticalAlign=middle;resizable=0;points=[];autosize=1;strokeColor=none;fillColor=none;" parent="1" vertex="1">
          <mxGeometry x="145" y="370" width="80" height="30" as="geometry" />
        </mxCell>
        <mxCell id="Ry-jSmfH3_tRgMZu5JE8-56" value="&lt;span style=&quot;color: rgb(240, 240, 240); font-family: Helvetica; font-size: 12px; font-style: normal; font-variant-ligatures: normal; font-variant-caps: normal; font-weight: 400; letter-spacing: normal; orphans: 2; text-align: left; text-indent: 0px; text-transform: none; widows: 2; word-spacing: 0px; -webkit-text-stroke-width: 0px; background-color: rgb(27, 29, 30); text-decoration-thickness: initial; text-decoration-style: initial; text-decoration-color: initial; float: none; display: inline !important;&quot;&gt;1.3: errorHandler(NoValueInStackToOperate)&lt;/span&gt;" style="text;whiteSpace=wrap;html=1;" parent="1" vertex="1">
          <mxGeometry x="265" y="580" width="245" height="20" as="geometry" />
        </mxCell>
        <mxCell id="Ry-jSmfH3_tRgMZu5JE8-57" value="" style="html=1;verticalAlign=bottom;labelBackgroundColor=none;endArrow=block;endFill=1;rounded=0;" parent="1" edge="1">
          <mxGeometry width="160" relative="1" as="geometry">
            <mxPoint x="354.99999999999994" y="630" as="sourcePoint" />
            <mxPoint x="264.99999999999994" y="630" as="targetPoint" />
          </mxGeometry>
        </mxCell>
        <mxCell id="Ry-jSmfH3_tRgMZu5JE8-58" value="" style="endArrow=none;html=1;rounded=0;" parent="1" edge="1">
          <mxGeometry width="50" height="50" relative="1" as="geometry">
            <mxPoint x="264.99999999999994" y="599.31" as="sourcePoint" />
            <mxPoint x="354.99999999999994" y="599.31" as="targetPoint" />
          </mxGeometry>
        </mxCell>
        <mxCell id="Ry-jSmfH3_tRgMZu5JE8-59" value="" style="endArrow=none;html=1;rounded=0;" parent="1" edge="1">
          <mxGeometry width="50" height="50" relative="1" as="geometry">
            <mxPoint x="354.99999999999994" y="629.31" as="sourcePoint" />
            <mxPoint x="354.99999999999994" y="599.31" as="targetPoint" />
            <Array as="points" />
          </mxGeometry>
        </mxCell>
      </root>
    </mxGraphModel>
  </diagram>
</mxfile>
